<svg width="33" height="33" viewBox="0 0 33 33" fill="none" xmlns="http://www.w3.org/2000/svg">
<path d="M31.2103 0.48291H1.75121C1.04275 0.48291 0.470383 1.05528 0.470383 1.76374V31.2229C0.470383 31.9313 1.04275 32.5037 1.75121 32.5037H31.2103C31.9188 32.5037 32.4912 31.9313 32.4912 31.2229V1.76374C32.4912 1.05528 31.9188 0.48291 31.2103 0.48291ZM27.5119 9.82897H24.9543C22.949 9.82897 22.5607 10.7816 22.5607 12.1825V15.2685H27.3478L26.7234 20.0996H22.5607V32.5037H17.5695V20.1036H13.3948V15.2685H17.5695V11.7062C17.5695 7.57151 20.0951 5.31805 23.7855 5.31805C25.5547 5.31805 27.0716 5.45013 27.5159 5.51017V9.82897H27.5119Z" fill="#FA4A0C"/>
</svg>
