<svg width="16" height="16" viewBox="0 0 16 16" fill="none" xmlns="http://www.w3.org/2000/svg">
<path d="M14.0001 6.57928C14.2007 7.93168 13.9697 9.31288 13.34 10.5264C12.7103 11.74 11.714 12.7241 10.4928 13.3387C9.27156 13.9534 7.88761 14.1674 6.53779 13.9502C5.18796 13.733 3.941 13.0957 2.97425 12.1289C2.0075 11.1622 1.3702 9.9152 1.15299 8.56537C0.935789 7.21555 1.14974 5.83161 1.76441 4.61039C2.37909 3.38917 3.36319 2.39286 4.57673 1.76317C5.79028 1.13349 7.17148 0.902485 8.52388 1.10303C9.90338 1.30759 11.1805 1.95041 12.1666 2.93653C13.1528 3.92265 13.7956 5.19978 14.0001 6.57928Z" stroke="white" stroke-width="2" stroke-linecap="round" stroke-linejoin="round"/>
</svg>
