<svg width="35" height="29" viewBox="0 0 35 29" fill="none" xmlns="http://www.w3.org/2000/svg">
<path d="M34.1449 4.1787C32.9201 4.70704 31.5873 5.08729 30.2144 5.23539C31.6398 4.38858 32.7072 3.05077 33.2163 1.47295C31.8788 2.26862 30.4135 2.82656 28.8855 3.12202C28.2469 2.43928 27.4745 1.89538 26.6165 1.52421C25.7584 1.15304 24.8332 0.962551 23.8983 0.964616C20.1158 0.964616 17.0739 4.03061 17.0739 7.79305C17.0739 8.32139 17.1379 8.84973 17.242 9.35806C11.5783 9.06187 6.52702 6.35611 3.16884 2.21343C2.55694 3.25857 2.23629 4.44858 2.24023 5.65966C2.24023 8.0292 3.44502 10.1186 5.28221 11.3474C4.19952 11.3047 3.14219 11.0071 2.19621 10.4788V10.5628C2.19621 13.881 4.54173 16.6308 7.66776 17.2632C7.08081 17.4157 6.47701 17.4936 5.87059 17.4953C5.4263 17.4953 5.00603 17.4513 4.58175 17.3913C5.44631 20.097 7.96395 22.0623 10.9619 22.1263C8.61637 23.9635 5.67846 25.0442 2.48839 25.0442C1.91602 25.0442 1.38768 25.0242 0.839325 24.9602C3.86529 26.9014 7.45562 28.0222 11.3221 28.0222C23.8743 28.0222 30.7427 17.6234 30.7427 8.59757C30.7427 8.30138 30.7427 8.00518 30.7227 7.70899C32.0516 6.73636 33.2163 5.53158 34.1449 4.1787Z" fill="#FA4A0C"/>
</svg>
